<svg width="64" height="64" viewBox="0 0 64 64" fill="none" xmlns="http://www.w3.org/2000/svg">
  <defs>
    <linearGradient id="logoGradient" x1="0%" y1="0%" x2="100%" y2="100%">
      <stop offset="0%" stop-color="#facc15" />
      <stop offset="50%" stop-color="#3b82f6" />
      <stop offset="100%" stop-color="#a855f7" />
    </linearGradient>
    <radialGradient id="bgGlow" cx="50%" cy="50%" r="50%">
      <stop offset="0%" stop-color="#3b82f6" stop-opacity="0.18" />
      <stop offset="100%" stop-color="#0f172a" stop-opacity="0.98" />
    </radialGradient>
  </defs>

  <rect width="64" height="64" rx="18" fill="#0f172a" />
  <circle cx="32" cy="32" r="26" fill="url(#bgGlow)" />
  <circle cx="32" cy="32" r="24" fill="none" stroke="url(#logoGradient)" stroke-width="2.5" opacity="0.7" />

  <path d="M18 16 L18 48 L22 48 L22 30 L28 48 L32 48 L24 30 L32 16 L28 16 L22 28 L22 16 Z" fill="url(#logoGradient)" />
  <path d="M36 48 L36 16 L40 16 L44 32 L48 16 L52 16 L52 48 L48 48 L48 28 L44 44 L40 28 L40 48 Z" fill="url(#logoGradient)" />

  <circle cx="32" cy="32" r="1.5" fill="#ffffff" opacity="0.85" />
  <line x1="10" y1="10" x2="14" y2="14" stroke="url(#logoGradient)" stroke-width="2" opacity="0.5" />
  <line x1="54" y1="10" x2="58" y2="14" stroke="url(#logoGradient)" stroke-width="2" opacity="0.5" />
  <line x1="10" y1="54" x2="14" y2="50" stroke="url(#logoGradient)" stroke-width="2" opacity="0.5" />
  <line x1="54" y1="54" x2="58" y2="50" stroke="url(#logoGradient)" stroke-width="2" opacity="0.5" />
</svg>