<svg width="1200" height="800" viewBox="0 0 1200 800" fill="none" xmlns="http://www.w3.org/2000/svg">
  <rect width="1200" height="800" rx="40" fill="#0F172A"/>
  <circle cx="320" cy="420" r="160" fill="#8B5CF6" fill-opacity="0.25"/>
  <path d="M360 260C360 232.386 360 218.386 352.279 212.279C344.558 206.172 331.828 206.172 304.214 206.172H258C242.431 206.172 232 216.603 232 232.172V316H360V260Z" fill="#A78BFA"/>
  <rect x="520" y="190" width="520" height="380" rx="36" fill="#111827" stroke="#8B5CF6" stroke-width="3"/>
  <path d="M580 260H1020" stroke="#A78BFA" stroke-width="10" stroke-linecap="round"/>
  <path d="M580 340H1020" stroke="#A78BFA" stroke-width="10" stroke-linecap="round"/>
  <path d="M580 420H860" stroke="#A78BFA" stroke-width="10" stroke-linecap="round"/>
  <circle cx="730" cy="565" r="18" fill="#8B5CF6"/>
  <circle cx="820" cy="565" r="18" fill="#8B5CF6"/>
  <circle cx="910" cy="565" r="18" fill="#8B5CF6"/>
  <path d="M235 500C280 560 340 600 410 600C480 600 540 560 585 500" stroke="#38BDF8" stroke-width="18" stroke-linecap="round"/>
  <path d="M245 520L320 440L385 510" stroke="#F8FAFC" stroke-width="16" stroke-linecap="round" stroke-linejoin="round"/>
</svg>
