<svg width="1200" height="800" viewBox="0 0 1200 800" xmlns="http://www.w3.org/2000/svg">
  <defs>
    <linearGradient id="grad1" x1="0%" y1="0%" x2="100%" y2="100%">
      <stop offset="0%" stop-color="#5b21b6" />
      <stop offset="100%" stop-color="#a78bfa" />
    </linearGradient>
    <linearGradient id="grad2" x1="0%" y1="0%" x2="0%" y2="100%">
      <stop offset="0%" stop-color="#ffffff" stop-opacity="0.4" />
      <stop offset="100%" stop-color="#ffffff" stop-opacity="0.1" />
    </linearGradient>
  </defs>
  <rect width="1200" height="800" rx="40" fill="url(#grad1)" />
  <rect x="100" y="120" width="180" height="260" rx="30" fill="#ffffff" fill-opacity="0.15" />
  <rect x="140" y="160" width="100" height="140" rx="20" fill="#fff" />
  <rect x="280" y="180" width="120" height="260" rx="25" fill="#f3f4f6" fill-opacity="0.2" />
  <path d="M170 420 q40 40 80 0" stroke="#c4b5fd" stroke-width="15" fill="none" />
  <rect x="450" y="140" width="520" height="420" rx="40" fill="#ffffff" fill-opacity="0.1" />
  <circle cx="620" cy="240" r="50" fill="#e9d5ff" />
  <rect x="560" y="330" width="220" height="40" rx="20" fill="#fff" fill-opacity="0.35" />
  <rect x="560" y="390" width="360" height="24" rx="12" fill="#fff" fill-opacity="0.25" />
  <rect x="560" y="430" width="320" height="24" rx="12" fill="#fff" fill-opacity="0.25" />
  <rect x="560" y="470" width="250" height="24" rx="12" fill="#fff" fill-opacity="0.25" />
  <text x="620" y="680" text-anchor="middle" fill="#fff" font-size="80" font-family="Inter, Helvetica, Arial, sans-serif" font-weight="700">Grocery App</text>
  <rect x="80" y="560" width="1040" height="120" rx="60" fill="url(#grad2)" />
</svg>