<svg width="64" height="64" viewBox="0 0 64 64" fill="none" xmlns="http://www.w3.org/2000/svg">
  <defs>
    <linearGradient id="logoGradient" x1="0%" y1="0%" x2="100%" y2="100%">
      <stop offset="0%" style="stop-color:#00d4ff;stop-opacity:1" />
      <stop offset="50%" style="stop-color:#ff0080;stop-opacity:1" />
      <stop offset="100%" style="stop-color:#00ff88;stop-opacity:1" />
    </linearGradient>
  </defs>

  <!-- Background circle -->
  <circle cx="32" cy="32" r="30" fill="url(#logoGradient)" opacity="0.1"/>
  <circle cx="32" cy="32" r="28" fill="none" stroke="url(#logoGradient)" stroke-width="2" opacity="0.3"/>

  <!-- K -->
  <path d="M16 16 L16 48 L20 48 L20 32 L26 48 L30 48 L22 30 L30 16 L26 16 L20 28 L20 16 Z" fill="url(#logoGradient)"/>

  <!-- M -->
  <path d="M34 48 L34 16 L38 16 L42 32 L46 16 L50 16 L50 48 L46 48 L46 28 L42 44 L38 28 L38 48 Z" fill="url(#logoGradient)"/>

  <!-- Accent lines -->
  <line x1="8" y1="8" x2="12" y2="12" stroke="url(#logoGradient)" stroke-width="2" opacity="0.6"/>
  <line x1="52" y1="8" x2="56" y2="12" stroke="url(#logoGradient)" opacity="0.6"/>
  <line x1="8" y1="56" x2="12" y2="52" stroke="url(#logoGradient)" stroke-width="2" opacity="0.6"/>
  <line x1="52" y1="56" x2="56" y2="52" stroke="url(#logoGradient)" opacity="0.6"/>
</svg>